#!OML:ASF E:\Steps\Project 1\Capture day 1\Session 2\Subject.ASF
:FULLY-SPECIFIED
:DEGREES
1
root 9.55165 16.3572 9.86772 -152.679 -2.17476 177.958
lowerback -28.2496 -1.48251 -4.97205
upperback -3.32453 -1.25915 -0.485509
thorax 12.0077 -1.18855 1.76228
lowerneck 0.138422 0.399206 -3.59698
upperneck 8.86654 -0.242114 6.14269
head 2.8455 -0.220094 2.63403
rclavicle -8.89561e-015 0
rhumerus -36.4112 -14.8397 -81.2205
rradius 29.6664
rwrist 7.19453
rhand -7.42716 -52.6381
rfingers 7.12502
rthumb 18.46 -81.7822
lclavicle -8.89561e-015 0
lhumerus -29.7144 6.20926 83.1497
lradius 19.9661
lwrist -6.8941
lhand -19.6045 -10.4547
lfingers 7.12502
lthumb 6.72166 19.4187
rfemur -24.5612 7.4173 17.0934
rtibia 6.12153
rfoot -18.2566 -5.74262
rtoes -30.7424
lfemur -26.9154 -11.4918 -18.3842
ltibia 7.83535
lfoot -6.49946 2.93478
ltoes -39.7926
2
root 9.5497 16.3553 9.86242 -152.648 -2.14326 177.857
lowerback -28.2892 -1.45463 -5.03609
upperback -3.33863 -1.19957 -0.549331
thorax 12.0068 -1.16512 1.74776
lowerneck 0.0949611 0.388865 -3.64549
upperneck 8.77344 -0.252709 6.26285
head 2.82439 -0.220909 2.68293
rclavicle 8.00108e-015 -9.54166e-015
rhumerus -36.3113 -20.1174 -77.155
rradius 30.7992
rwrist 1.68922
rhand -8.68927 -51.6506
rfingers 7.12502
rthumb 17.2455 -80.9053
lclavicle 8.00108e-015 -9.54166e-015
lhumerus -29.5366 6.08205 83.3034
lradius 20.6619
lwrist -6.93398
lhand -19.9285 -11.0302
lfingers 7.12502
lthumb 6.40888 18.8529
rfemur -24.5856 7.42799 16.9436
rtibia 6.14393
rfoot -18.0065 -5.69107
rtoes -30.2655
lfemur -26.9472 -11.5221 -18.5206
ltibia 7.94171
lfoot -6.57885 2.96492
ltoes -39.7832
3
root 9.55102 16.3523 9.85432 -152.66 -2.10333 177.897
lowerback -28.2518 -1.40545 -5.03705
upperback -3.40173 -1.14944 -0.557271
thorax 11.9096 -1.14392 1.75952
lowerneck 0.128144 0.394975 -3.64364
upperneck 8.72397 -0.248319 6.33258
head 2.80197 -0.217541 2.70543
rclavicle -1.63997e-015 -1.45113e-014
rhumerus -36.1598 -18.7558 -78.0492
rradius 32.6333
rwrist 0.0976827
rhand -8.72344 -53.2289
rfingers 7.12502
rthumb 17.2126 -82.4866
lclavicle -1.63997e-015 -1.45113e-014
lhumerus -29.5233 5.45913 83.6564
lradius 21.5261
lwrist -6.07152
lhand -20.5046 -11.1672
lfingers 7.12502
lthumb 5.85269 18.732
rfemur -24.5375 7.38373 17.0209
rtibia 6.12068
rfoot -17.8862 -5.62122
rtoes -30.6446
lfemur -26.8669 -11.501 -18.4874
ltibia 7.87135
lfoot -6.53122 3.03401
ltoes -39.3597
4
root 9.55241 16.3498 9.8454 -152.601 -2.09463 177.954
lowerback -28.3285 -1.3668 -5.0052
upperback -3.45807 -1.1198 -0.55861
thorax 11.8808 -1.13327 1.74955
lowerneck 0.135891 0.419971 -3.67911
upperneck 8.70141 -0.217726 6.39894
head 2.79211 -0.201886 2.73498
rclavicle 1.03617e-014 -4.77083e-015
rhumerus -36.0584 -18.5022 -78.1864
rradius 33.3615
rwrist -0.295521
rhand -8.42131 -53.2479
rfingers 7.12502
rthumb 17.5034 -82.4799
lclavicle 1.03617e-014 -4.77083e-015
lhumerus -29.4966 4.57659 84.1207
lradius 22.4421
lwrist -4.59529
lhand -20.8258 -10.978
lfingers 7.12502
lthumb 5.54253 18.9295
rfemur -24.5679 7.37971 17.0978
rtibia 6.095
rfoot -17.8923 -5.65141
rtoes -30.8236
lfemur -26.8953 -11.5147 -18.3997
ltibia 7.85017
lfoot -6.53716 3.10645
ltoes -39.0161
5
root 9.55244 16.3499 9.83269 -152.63 -2.0559 177.955
lowerback -28.4305 -1.33725 -4.99499
upperback -3.42311 -1.0716 -0.588279
thorax 11.9705 -1.11127 1.72549
lowerneck 0.0813133 0.429719 -3.69291
upperneck 8.69115 -0.208178 6.48372
head 2.79924 -0.194132 2.76722
rclavicle 7.82715e-015 3.73715e-014
rhumerus -35.8735 -18.017 -78.4655
rradius 34.1255
rwrist -0.895062
rhand -8.15081 -52.7427
rfingers 7.12502
rthumb 17.7637 -81.9513
lclavicle 7.82715e-015 3.73715e-014
lhumerus -29.3232 4.2908 84.3227
lradius 23.1967
lwrist -3.98124
lhand -20.6727 -10.9349
lfingers 7.12502
lthumb 5.69035 18.9687
rfemur -24.4471 7.46254 17.0767
rtibia 5.9853
rfoot -17.9114 -5.56717
rtoes -30.351
lfemur -26.7843 -11.5261 -18.43
ltibia 7.81056
lfoot -6.57501 3.16559
ltoes -39.3873
